# xmcd
#
# Track frame offsets:
#	150
#	10962
#	24482
#	35812
#	46905
#	59627
#	71160
#	84617
#	97905
#	115757
#	132807
#	147920
#	157822
#	169392
#	188357
#	201730
#	215635
#	237407
#
# Disc length: 3292 seconds
#
# Revision: 6
# Processed by: cddbd v1.4PL0 Copyright (c) Steve Scherf et al.
# Submitted via: CDmax 2.0
#
DISCID=050cda12
DTITLE=Waylon Jennings - Greatest Hits
DYEAR=1998
DGENRE=Country
TTITLE0=The Taker
TTITLE1=Good Hearted Woman
TTITLE2=You Ask Me To
TTITLE3=This Time
TTITLE4=I'm a Ramblin' Man
TTITLE5=Rainy Day Woman
TTITLE6=Amanda
TTITLE7=Are You Sure Hank Done It This Way
TTITLE8=Suspicious Minds
TTITLE9=Can't You See
TTITLE10=Luckenbach Texas (Back To the Basics of Love)
TTITLE11=The Wurlitzer Prize (I Don't Want To Get Over You)
TTITLE12=Mammas Don't Let Your Babies Grow Up To Be Cowboys
TTITLE13=I've Always Been Crazy
TTITLE14=Don't You Think This Outlaw Bit's Done Got Out of Hand
TTITLE15=Come With Me
TTITLE16=I Ain't Living Long Like This
TTITLE17=Theme From "The Dukes of Hazzard" (Good Ol' Boys)
EXTD=LABEL =BMG Entertainment\nID =74321628052\nUPC =743216-280520\nCOPYRI
EXTD=GHT =1998
EXTT0=
EXTT1=
EXTT2=
EXTT3=
EXTT4=
EXTT5=
EXTT6=
EXTT7=
EXTT8=With Jessie Colter
EXTT9=
EXTT10=
EXTT11=
EXTT12=
EXTT13=
EXTT14=
EXTT15=
EXTT16=
EXTT17=
PLAYORDER=
